<svg width="790" height="613" viewBox="0 0 790 613" fill="none" xmlns="http://www.w3.org/2000/svg">
<g clip-path="url(#clip0_267_18)">
<path d="M15.3971 46.6217C23.9351 38.8605 35.4373 34.5008 46.9779 34.6158C275.939 34.6254 504.89 34.6158 733.851 34.6158C740.326 34.6445 746.895 34.2708 753.241 35.8901C767.415 39.1575 779.661 49.544 785.309 62.9201C787.583 68.0846 788.511 73.6899 789.518 79.2089V532.844C788.309 544.208 784.223 555.61 776.013 563.832C768.012 572.215 756.76 577.428 745.169 578.05C741.729 578.213 738.276 578.118 734.83 578.136C505.533 578.136 276.246 578.137 46.9491 578.147C39.4664 578.165 31.9741 576.431 25.326 573.001C10.8499 565.7 0.949727 550.465 0 534.3V79.4485C0.47966 67.021 6.11087 54.9002 15.3971 46.6217ZM103.127 194.343C95.9893 211.216 88.7944 228.061 81.5902 244.915C73.2729 263.369 64.9363 281.814 56.6095 300.258C75.2011 300.287 93.8021 300.268 112.394 300.268C114.649 294.557 116.97 288.866 119.225 283.155C123.877 283.136 128.53 283.126 133.183 283.165C135.302 288.866 137.461 294.557 139.581 300.258C160.302 300.287 181.024 300.268 201.754 300.268C201.764 296.014 201.745 291.769 201.754 287.515C203.567 291.75 205.314 296.023 207.107 300.268C217.487 300.239 227.868 300.335 238.247 300.22C239.964 295.937 241.777 291.683 243.552 287.428C243.542 291.702 243.542 295.985 243.552 300.268C293.197 300.278 342.832 300.278 392.477 300.268C392.487 290.984 392.477 281.689 392.487 272.404C393.82 272.424 395.153 272.443 396.506 272.49C397.178 281.354 396.612 290.284 396.794 299.185C422.494 299.214 448.194 299.185 473.894 299.195C473.904 297.067 473.894 294.94 473.904 292.823C482.835 297.173 492.793 299.233 502.703 299.195C513.476 299.185 524.259 299.205 535.042 299.185C537.191 293.465 539.272 287.725 541.517 282.034C546.486 282.101 551.455 282.053 556.434 282.073C558.574 287.773 560.722 293.484 562.862 299.195C583.573 299.195 604.276 299.185 624.987 299.195C624.997 293.848 624.987 288.492 624.997 283.145C628.21 288.483 631.434 293.819 634.619 299.176C651.417 299.214 668.214 299.185 685.012 299.195C685.021 264.241 685.012 229.287 685.012 194.333C668.944 194.343 652.875 194.323 636.806 194.343C636.806 198.587 636.816 202.822 636.806 207.057C634.657 202.822 632.556 198.558 630.408 194.333C613.61 194.343 596.812 194.323 580.015 194.343C580.033 198.626 580.024 202.909 580.024 207.192C577.866 202.909 575.736 198.616 573.568 194.333C550.228 194.343 526.888 194.333 503.547 194.343C493.723 194.41 483.814 196.326 474.998 200.743C474.979 198.597 474.988 196.45 474.93 194.314C458.881 194.371 442.822 194.323 426.773 194.333C426.773 196.45 426.773 198.568 426.801 200.685C421.41 196.412 414.522 194.381 407.692 194.352C349.768 194.314 291.834 194.352 233.901 194.333C229.958 203.225 226.064 212.136 222.112 221.027C218.159 212.145 214.235 203.244 210.35 194.343C192.113 194.333 173.886 194.343 155.66 194.333C155.64 198.558 155.678 202.774 155.621 206.99C153.818 202.794 152.091 198.568 150.335 194.352C134.602 194.314 118.869 194.343 103.127 194.343ZM206.014 319.556C206.014 355.592 206.004 391.62 206.014 427.647C237.46 427.656 268.897 427.618 300.344 427.666C305.544 422.55 310.666 417.327 315.876 412.211C320.336 417.365 324.797 422.511 329.277 427.656C349.269 427.638 369.252 427.656 389.244 427.647C389.244 419.445 389.244 411.243 389.244 403.041C399.298 402.964 409.735 403.597 419.29 399.879C419.281 409.499 419.281 419.11 419.29 428.73C435.349 428.73 451.417 428.73 467.496 428.73C467.486 419.435 467.486 410.141 467.496 400.847C469.223 400.856 470.959 400.943 472.686 401.144C473.117 410.333 472.772 419.531 472.887 428.73C519.242 428.73 565.605 428.73 611.969 428.73C622.598 428.892 634.187 428.72 643.243 422.377C643.215 424.485 643.215 426.603 643.224 428.73C658.717 428.73 674.21 428.73 689.703 428.73C699.21 428.624 709.513 427.877 717.332 421.86C728.836 413.83 733.829 398.758 731.743 385.2C731.139 379.988 728.966 375.187 726.858 370.473C726.735 353.504 726.836 336.534 726.807 319.565C709.983 319.537 693.157 319.575 676.34 319.546C670.354 319.326 665.068 322.641 660.357 325.938C660.367 323.81 660.367 321.683 660.377 319.556C646.822 319.556 633.266 319.556 619.711 319.556C609.494 319.412 598.088 319.125 589.656 325.832C589.675 323.733 589.685 321.654 589.685 319.565C560.387 319.546 531.089 319.556 501.782 319.556C501.782 321.664 501.772 323.772 501.792 325.88C492.678 319.278 480.83 319.422 470.077 319.556C453.5 319.556 436.932 319.546 420.355 319.556C420.355 321.635 420.355 323.714 420.393 325.803C413.86 320.706 405.188 319.93 397.207 319.565C375.238 319.565 353.27 319.499 331.301 319.604C326.38 324.97 321.382 330.278 316.394 335.586C311.741 330.239 307.127 324.874 302.454 319.546C270.307 319.565 238.161 319.546 206.014 319.556Z" fill="white"/>
<path d="M82.1855 284.217C92.757 259.248 103.31 234.277 113.891 209.307C122.822 209.317 131.753 209.279 140.684 209.327C150.7 233.223 160.629 257.159 170.721 281.026C170.663 257.12 170.712 233.214 170.702 209.307C180.103 209.26 189.505 209.394 198.906 209.23C207.29 226.535 215.09 244.128 222.803 261.738C229.949 244.214 237.365 226.794 244.598 209.307C254.239 209.307 263.881 209.298 273.522 209.307C273.531 234.277 273.531 259.248 273.522 284.217C267.804 284.227 262.096 284.227 256.378 284.217C256.378 264.632 256.388 245.037 256.369 225.453C247.678 245.028 239.082 264.642 230.39 284.217C225.124 284.227 219.867 284.217 214.601 284.227C206.024 264.594 197.448 244.951 188.872 225.318C188.861 244.951 188.872 264.584 188.861 284.217C176.727 284.227 164.591 284.217 152.455 284.227C149.971 278.88 147.458 273.563 144.992 268.206C132.828 268.13 120.673 268.197 108.509 268.177C106.015 273.534 103.549 278.909 100.979 284.227C94.714 284.208 88.4494 284.227 82.1855 284.217ZM114.966 252.128C122.812 252.109 130.66 252.128 138.517 252.118C134.612 242.134 130.679 232.16 126.755 222.195C122.774 232.15 118.869 242.144 114.966 252.128Z" fill="white"/>
<path d="M287.499 209.309C307.501 209.299 327.502 209.309 347.514 209.309C347.514 214.655 347.504 220.002 347.514 225.349C333.584 225.368 319.655 225.339 305.726 225.358C305.716 229.986 305.716 234.614 305.726 239.252C319.29 239.252 332.855 239.242 346.429 239.252C346.439 244.263 346.429 249.264 346.429 254.275C332.865 254.285 319.29 254.266 305.726 254.285C305.716 259.268 305.726 264.26 305.726 269.252C319.655 269.262 333.584 269.242 347.514 269.252C347.514 274.598 347.514 279.955 347.514 285.301C327.502 285.301 307.501 285.301 287.499 285.301C287.489 259.967 287.489 234.643 287.499 209.309Z" fill="white"/>
<path d="M359.265 209.318C375.41 209.347 391.566 209.203 407.72 209.385C414.503 209.414 422.053 211.023 426.283 216.82C433.833 227.255 429.325 243.898 417.342 248.891C423.54 250.759 427.809 256.604 428.537 262.908C429.314 269.979 428.778 277.118 428.931 284.218C423.578 284.228 418.225 284.218 412.872 284.218C412.613 277.348 413.697 270.162 411.251 263.569C410.052 259.852 406.176 257.619 402.406 257.572C394.108 257.313 385.8 257.523 377.492 257.447C377.482 266.377 377.502 275.297 377.482 284.228C371.41 284.218 365.337 284.218 359.265 284.228C359.256 259.257 359.265 234.288 359.265 209.318ZM377.502 225.358C377.492 231.059 377.492 236.77 377.492 242.48C386.289 242.375 395.115 242.691 403.902 242.327C410.301 242.461 412.306 234.518 410.57 229.554C409.208 226.172 405.15 225.377 401.898 225.386C393.762 225.3 385.627 225.386 377.502 225.358Z" fill="white"/>
<path d="M441.776 284.228C441.757 259.248 441.757 234.279 441.776 209.309C447.848 209.309 453.921 209.299 459.993 209.309C459.993 234.279 460.003 259.248 459.993 284.228C453.911 284.218 447.839 284.218 441.776 284.228Z" fill="white"/>
<path d="M487.843 211.607C498.924 208.052 510.733 209.681 522.168 209.308C522.178 214.654 522.158 220.001 522.178 225.347C515.673 225.405 509.169 225.261 502.665 225.414C497.101 225.606 490.846 228.03 488.448 233.425C485.349 239.959 485.32 247.472 486.174 254.514C486.798 259.976 489.896 265.418 495.077 267.698C500.219 269.94 505.965 269.078 511.414 269.251C519.674 249.646 527.838 229.995 536.087 210.381C545.019 210.391 553.95 210.362 562.881 210.4C572.849 234.268 582.864 258.117 592.822 281.985C592.908 258.117 592.831 234.249 592.86 210.381C601.801 210.391 610.742 210.362 619.683 210.4C630.015 227.877 640.385 245.335 650.727 262.812C650.707 245.345 650.727 227.868 650.717 210.391C656.789 210.381 662.872 210.381 668.953 210.381C668.944 234.996 668.953 259.602 668.944 284.217C661.087 284.227 653.23 284.217 645.383 284.217C633.957 265.303 622.503 246.408 611.097 227.484C611.068 246.418 611.155 265.351 610.972 284.284C598.866 284.313 586.759 284.189 574.652 284.217C572.522 278.871 570.364 273.534 568.244 268.178C555.735 268.168 543.225 268.178 530.716 268.178C528.576 273.889 526.437 279.609 524.269 285.319C511.702 284.773 498.521 287.025 486.548 282.128C478.058 278.851 472.12 270.803 470.096 262.103C467.899 252.176 467.957 241.655 470.643 231.835C473.252 223.211 478.749 214.367 487.843 211.607ZM537.172 252.147C545.383 252.09 553.596 252.147 561.816 252.109C557.845 242.144 553.979 232.151 550.017 222.186C545.719 232.16 541.402 242.135 537.172 252.147Z" fill="white"/>
<path d="M590.577 342.167C595.489 337.415 602.53 335.681 609.198 335.613C621.256 335.585 633.315 335.604 645.383 335.604C645.383 341.669 645.383 347.744 645.383 353.809C633.324 353.838 621.256 353.752 609.198 353.848C606.856 353.981 603.73 354.375 602.837 356.942C602.386 359.012 602.098 361.561 603.528 363.334C605.964 365.882 609.629 366.831 613.083 366.639C621.995 366.792 631.675 365.585 639.704 370.328C644.894 373.164 647.695 378.923 648.319 384.614C649.22 391.964 648.223 400.329 642.745 405.799C637.21 411.232 629.046 412.535 621.602 412.67C609.878 412.698 598.165 412.67 586.452 412.679C586.433 407.323 586.452 401.976 586.442 396.62C598.789 396.572 611.145 396.754 623.491 396.544C629.113 396.592 632.279 389.348 629.161 384.95C626.993 381.386 622.369 381.625 618.752 381.443C610.157 380.906 600.976 381.002 593.263 376.661C588.246 373.883 585.234 368.412 584.62 362.826C583.469 355.544 585.099 347.409 590.577 342.167Z" fill="white"/>
<path d="M658.736 344.15C663.735 338.315 671.649 335.652 679.179 335.604C691.133 335.594 703.095 335.604 715.049 335.604C715.058 341.669 715.049 347.734 715.058 353.799C703.114 353.848 691.171 353.761 679.237 353.837C677.222 354.01 674.565 353.952 673.433 355.955C672.071 358.274 671.457 361.599 673.222 363.88C675.995 365.997 679.611 366.783 683.074 366.639C690.777 366.763 698.951 365.795 706.136 369.235C712.036 372.052 716.977 377.246 718.627 383.665C720.67 391.561 718.281 400.634 711.998 406.01C706.165 411.011 698.213 412.583 690.72 412.669C679.189 412.689 667.649 412.669 656.117 412.679C656.117 407.323 656.108 401.976 656.127 396.63C667.955 396.61 679.794 396.649 691.641 396.61C694.5 396.764 697.666 395.69 698.999 392.959C701.483 388.964 699.287 382.746 694.423 381.97C685.165 380.829 675.505 381.653 666.593 378.405C661.393 376.623 656.932 372.541 655.292 367.233C652.913 359.606 653.403 350.465 658.736 344.15Z" fill="white"/>
<path d="M433.19 336.687C449.01 336.706 464.839 336.62 480.657 336.735C487.747 336.745 495.536 338.192 500.324 343.921C509.322 354.154 504.842 372.264 492.237 377.38C495.354 378.703 498.655 380.035 500.995 382.583C504.026 386.426 504.871 391.465 504.996 396.237C505.073 401.709 504.996 407.189 505.024 412.67C498.942 412.679 492.87 412.67 486.807 412.679C486.615 406.193 487.305 399.62 486.039 393.21C485.339 389.157 482.202 385.19 477.799 385.094C469.021 384.529 460.214 384.969 451.427 384.835C451.408 394.11 451.427 403.395 451.408 412.679C445.335 412.67 439.263 412.679 433.19 412.67C433.19 387.346 433.19 362.021 433.19 336.687ZM452.502 353.809C452.492 359.52 452.502 365.221 452.492 370.932C460.713 370.913 468.935 370.999 477.156 370.894C479.89 370.769 483.411 370.482 484.629 367.55C485.751 364.858 486.078 361.801 485.877 358.907C485.118 355.257 480.993 353.848 477.684 353.867C469.289 353.723 460.896 353.848 452.502 353.809Z" fill="white"/>
<path d="M515.759 336.687C535.741 336.677 555.724 336.677 575.707 336.687C575.716 342.033 575.707 347.371 575.716 352.726C561.787 352.746 547.858 352.717 533.928 352.736C533.91 357.364 533.919 361.992 533.919 366.63C547.494 366.62 561.058 366.63 574.633 366.62C574.633 371.612 574.633 376.604 574.623 381.596C561.058 381.586 547.494 381.596 533.919 381.596C533.919 386.608 533.919 391.609 533.919 396.62C547.848 396.649 561.778 396.601 575.716 396.649C575.707 401.986 575.707 407.333 575.707 412.679C555.724 412.679 535.741 412.689 515.759 412.669C515.75 387.345 515.75 362.011 515.759 336.687Z" fill="white"/>
<path d="M224.241 337.76C247.447 337.75 270.653 337.779 293.859 337.75C301.61 346.086 309.208 354.566 316.95 362.921C324.663 354.557 332.28 346.115 340.002 337.76C359.361 337.769 378.73 337.75 398.099 337.769C406.397 337.933 415.568 339.686 421.362 346.144C426.983 352.018 426.226 361.024 424.557 368.345C422.619 376.652 414.944 382.334 406.8 383.723C395.719 385.754 384.38 384.471 373.176 384.825C373.166 394.11 373.185 403.394 373.176 412.679C361.443 412.66 349.701 412.708 337.968 412.65C330.744 404.467 323.751 396.074 316.365 388.035C308.584 396.304 300.651 404.439 292.832 412.679C269.972 412.679 247.102 412.679 224.241 412.679C224.241 387.7 224.241 362.729 224.241 337.76ZM327.109 375.186C336.414 385.534 345.7 395.901 355.006 406.249C355.006 385.908 355.006 365.557 355.016 345.214C345.7 355.189 336.433 365.221 327.109 375.186ZM240.31 352.726C240.31 357.364 240.31 361.992 240.319 366.62C253.539 366.629 266.767 366.62 279.997 366.629C279.997 371.612 280.006 376.604 279.997 381.596C266.767 381.596 253.539 381.596 240.31 381.596C240.31 386.962 240.319 392.328 240.31 397.703C254.949 397.703 269.598 397.712 284.247 397.693C291.057 390.22 297.802 382.679 304.632 375.224C298.176 367.712 291.777 360.142 285.254 352.688C270.269 352.784 255.294 352.707 240.31 352.726ZM373.176 352.726C373.176 359.156 373.166 365.585 373.185 372.014C381.195 371.976 389.215 372.072 397.235 371.976C401.226 372.024 405.706 370.098 406.953 366.006C409.073 360.104 404.267 353.311 398.099 352.889C389.8 352.516 381.483 352.832 373.176 352.726Z" fill="white"/>
</g>
<defs>
<clipPath id="clip0_267_18">
<rect width="790" height="544" fill="white" transform="translate(0 34.5)"/>
</clipPath>
</defs>
</svg>
