<svg width="557" height="448" viewBox="0 0 557 448" fill="none" xmlns="http://www.w3.org/2000/svg">
<g clip-path="url(#clip0_269_10)">
<path d="M10.8559 40.078C16.8757 34.5852 24.9855 31.4998 33.1224 31.5812C194.554 31.588 355.979 31.5812 517.411 31.5812C521.977 31.6015 526.608 31.3371 531.083 32.4831C541.076 34.7955 549.71 42.1462 553.692 51.6127C555.295 55.2677 555.95 59.2347 556.66 63.1407V384.188C555.808 392.23 552.926 400.3 547.138 406.118C541.497 412.051 533.563 415.74 525.391 416.181C522.966 416.296 520.531 416.229 518.101 416.242C356.433 416.242 194.771 416.242 33.1021 416.249C27.8263 416.262 22.5438 415.035 17.8565 412.608C7.64987 407.44 0.669617 396.658 0 385.218V63.3102C0.338191 54.515 4.30855 45.9369 10.8559 40.078ZM72.7108 144.623C67.6785 156.565 62.6057 168.486 57.5262 180.414C51.662 193.474 45.7842 206.528 39.9133 219.582C53.0215 219.602 66.1364 219.589 79.2447 219.589C80.8345 215.547 82.471 211.519 84.0608 207.477C87.3409 207.464 90.6216 207.457 93.9022 207.484C95.3966 211.519 96.9185 215.547 98.4135 219.582C113.023 219.602 127.633 219.589 142.25 219.589C142.257 216.578 142.243 213.574 142.25 210.563C143.528 213.56 144.759 216.585 146.024 219.589C153.342 219.569 160.661 219.636 167.979 219.555C169.19 216.524 170.468 213.513 171.72 210.502C171.713 213.526 171.713 216.558 171.72 219.589C206.723 219.595 241.718 219.595 276.721 219.589C276.728 213.018 276.721 206.44 276.728 199.869C277.668 199.883 278.608 199.896 279.562 199.93C280.036 206.203 279.636 212.523 279.765 218.822C297.885 218.843 316.005 218.822 334.125 218.829C334.133 217.324 334.125 215.818 334.133 214.32C340.429 217.398 347.45 218.856 354.437 218.829C362.033 218.822 369.635 218.836 377.238 218.822C378.753 214.774 380.221 210.712 381.804 206.684C385.308 206.732 388.811 206.698 392.321 206.711C393.83 210.746 395.345 214.788 396.853 218.829C411.456 218.829 426.053 218.822 440.655 218.829C440.663 215.045 440.655 211.255 440.663 207.471C442.928 211.248 445.201 215.025 447.446 218.816C459.29 218.843 471.133 218.822 482.977 218.829C482.983 194.091 482.977 169.354 482.977 144.616C471.648 144.623 460.318 144.609 448.989 144.623C448.989 147.627 448.995 150.625 448.989 153.622C447.473 150.625 445.992 147.607 444.477 144.616C432.634 144.623 420.79 144.609 408.947 144.623C408.96 147.654 408.954 150.686 408.954 153.717C407.432 150.686 405.93 147.647 404.402 144.616C387.945 144.623 371.489 144.616 355.033 144.623C348.106 144.67 341.119 146.027 334.904 149.153C334.89 147.634 334.896 146.115 334.856 144.603C323.54 144.644 312.218 144.609 300.902 144.616C300.902 146.115 300.902 147.614 300.922 149.112C297.121 146.088 292.264 144.65 287.449 144.63C246.608 144.603 205.762 144.63 164.915 144.616C162.135 150.909 159.389 157.216 156.603 163.509C153.816 157.222 151.049 150.923 148.31 144.623C135.452 144.616 122.601 144.623 109.75 144.616C109.736 147.607 109.763 150.59 109.722 153.574C108.451 150.604 107.234 147.614 105.996 144.63C94.9031 144.603 83.8102 144.623 72.7108 144.623ZM145.253 233.239C145.253 258.743 145.246 284.24 145.253 309.737C167.425 309.744 189.59 309.717 211.761 309.751C215.428 306.13 219.039 302.434 222.712 298.813C225.857 302.461 229.003 306.102 232.161 309.744C246.257 309.731 260.346 309.744 274.442 309.737C274.442 303.933 274.442 298.128 274.442 292.323C281.53 292.269 288.889 292.716 295.626 290.086C295.619 296.894 295.619 303.695 295.626 310.504C306.949 310.504 318.278 310.504 329.614 310.504C329.608 303.926 329.608 297.348 329.614 290.771C330.832 290.777 332.056 290.838 333.273 290.981C333.578 297.484 333.334 303.994 333.415 310.504C366.098 310.504 398.788 310.504 431.477 310.504C438.971 310.619 447.142 310.497 453.527 306.008C453.507 307.5 453.507 308.998 453.514 310.504C464.437 310.504 475.361 310.504 486.284 310.504C492.987 310.429 500.251 309.9 505.764 305.642C513.876 299.959 517.396 289.292 515.925 279.697C515.499 276.008 513.967 272.611 512.481 269.274C512.394 257.265 512.465 245.255 512.445 233.246C500.583 233.226 488.719 233.253 476.862 233.232C472.642 233.077 468.915 235.423 465.594 237.756C465.601 236.25 465.601 234.745 465.607 233.239C456.05 233.239 446.493 233.239 436.936 233.239C429.732 233.138 421.69 232.934 415.745 237.681C415.758 236.196 415.765 234.724 415.765 233.246C395.108 233.232 374.452 233.239 353.788 233.239C353.788 234.731 353.781 236.223 353.795 237.715C347.369 233.042 339.016 233.144 331.434 233.239C319.746 233.239 308.065 233.232 296.377 233.239C296.377 234.711 296.377 236.182 296.404 237.66C291.797 234.053 285.683 233.504 280.056 233.246C264.566 233.246 249.077 233.199 233.588 233.273C230.119 237.07 226.594 240.827 223.077 244.584C219.797 240.8 216.544 237.003 213.249 233.232C190.584 233.246 167.918 233.232 145.253 233.239Z" fill="white"/>
<path d="M57.9453 208.23C65.3989 190.558 72.8392 172.886 80.2994 155.215C86.5968 155.222 92.8938 155.194 99.1907 155.228C106.252 172.14 113.253 189.08 120.368 205.972C120.328 189.053 120.362 172.134 120.355 155.215C126.983 155.181 133.612 155.276 140.24 155.16C146.152 167.407 151.651 179.858 157.089 192.321C162.128 179.919 167.357 167.591 172.456 155.215C179.254 155.215 186.052 155.208 192.849 155.215C192.856 172.886 192.856 190.558 192.849 208.23C188.818 208.237 184.794 208.237 180.762 208.23C180.762 194.369 180.769 180.501 180.756 166.641C174.628 180.495 168.567 194.376 162.439 208.23C158.726 208.237 155.02 208.23 151.306 208.237C145.259 194.342 139.213 180.44 133.166 166.546C133.159 180.44 133.166 194.335 133.159 208.23C124.603 208.237 116.046 208.23 107.49 208.237C105.738 204.453 103.966 200.689 102.228 196.898C93.6511 196.844 85.0816 196.892 76.5049 196.878C74.7466 200.669 73.0082 204.473 71.1956 208.237C66.7787 208.223 62.3617 208.237 57.9453 208.23ZM81.0573 185.52C86.5897 185.506 92.1227 185.52 97.6623 185.513C94.9092 178.447 92.1364 171.388 89.3697 164.336C86.5628 171.381 83.8098 178.454 81.0573 185.52Z" fill="white"/>
<path d="M202.705 155.216C216.807 155.209 230.91 155.216 245.019 155.216C245.019 159 245.012 162.784 245.019 166.567C235.198 166.581 225.377 166.561 215.556 166.574C215.549 169.849 215.549 173.125 215.556 176.407C225.119 176.407 234.684 176.4 244.254 176.407C244.261 179.953 244.254 183.493 244.254 187.04C234.69 187.047 225.119 187.033 215.556 187.047C215.549 190.573 215.556 194.106 215.556 197.639C225.377 197.646 235.198 197.632 245.019 197.639C245.019 201.422 245.019 205.213 245.019 208.997C230.91 208.997 216.807 208.997 202.705 208.997C202.697 191.068 202.697 173.145 202.705 155.216Z" fill="white"/>
<path d="M253.305 155.222C264.688 155.243 276.079 155.141 287.469 155.27C292.251 155.29 297.574 156.429 300.557 160.532C305.88 167.917 302.701 179.695 294.253 183.229C298.623 184.551 301.632 188.687 302.146 193.149C302.694 198.154 302.316 203.206 302.424 208.231C298.649 208.237 294.875 208.231 291.101 208.231C290.918 203.369 291.683 198.283 289.958 193.617C289.112 190.986 286.38 189.406 283.722 189.372C277.871 189.189 272.013 189.338 266.156 189.284C266.149 195.604 266.163 201.917 266.149 208.237C261.868 208.231 257.586 208.231 253.305 208.237C253.298 190.565 253.305 172.894 253.305 155.222ZM266.163 166.574C266.156 170.608 266.156 174.65 266.156 178.692C272.358 178.617 278.581 178.841 284.777 178.583C289.289 178.678 290.702 173.057 289.478 169.544C288.517 167.15 285.656 166.588 283.363 166.594C277.628 166.533 271.892 166.594 266.163 166.574Z" fill="white"/>
<path d="M311.481 208.238C311.467 190.559 311.467 172.888 311.481 155.216C315.762 155.216 320.044 155.209 324.325 155.216C324.325 172.888 324.332 190.559 324.325 208.238C320.037 208.231 315.755 208.231 311.481 208.238Z" fill="white"/>
<path d="M343.96 156.842C351.772 154.326 360.098 155.479 368.161 155.215C368.168 158.999 368.154 162.782 368.168 166.566C363.582 166.607 358.996 166.505 354.41 166.614C350.487 166.749 346.077 168.465 344.386 172.283C342.201 176.907 342.181 182.224 342.783 187.208C343.223 191.074 345.407 194.925 349.06 196.539C352.685 198.126 356.737 197.515 360.579 197.637C366.402 183.763 372.159 169.855 377.975 155.974C384.273 155.981 390.57 155.961 396.866 155.988C403.894 172.879 410.956 189.758 417.977 206.65C418.038 189.758 417.983 172.866 418.004 155.974C424.308 155.981 430.611 155.961 436.915 155.988C444.2 168.357 451.511 180.712 458.803 193.08C458.789 180.719 458.803 168.35 458.796 155.981C463.077 155.974 467.366 155.974 471.654 155.974C471.648 173.395 471.654 190.809 471.648 208.23C466.108 208.236 460.568 208.23 455.035 208.23C446.98 194.844 438.904 181.471 430.862 168.078C430.841 181.478 430.902 194.878 430.773 208.277C422.238 208.297 413.702 208.209 405.166 208.23C403.664 204.446 402.142 200.669 400.648 196.878C391.828 196.872 383.007 196.878 374.188 196.878C372.679 200.92 371.171 204.968 369.642 209.009C360.782 208.623 351.488 210.217 343.047 206.751C337.061 204.432 332.874 198.736 331.447 192.579C329.898 185.553 329.939 178.108 331.832 171.157C333.672 165.054 337.548 158.795 343.96 156.842ZM378.74 185.533C384.529 185.492 390.319 185.533 396.116 185.506C393.315 178.454 390.59 171.381 387.796 164.329C384.766 171.388 381.722 178.447 378.74 185.533Z" fill="white"/>
<path d="M416.394 249.243C419.857 245.88 424.822 244.653 429.523 244.605C438.025 244.585 446.527 244.598 455.036 244.598C455.036 248.891 455.036 253.19 455.036 257.482C446.534 257.503 438.025 257.442 429.523 257.51C427.872 257.604 425.667 257.883 425.038 259.7C424.72 261.164 424.517 262.968 425.525 264.223C427.243 266.027 429.827 266.698 432.262 266.563C438.545 266.671 445.37 265.817 451.032 269.173C454.691 271.181 456.666 275.256 457.105 279.284C457.741 284.485 457.038 290.405 453.175 294.277C449.273 298.122 443.517 299.044 438.268 299.139C430.003 299.159 421.744 299.139 413.485 299.146C413.472 295.355 413.485 291.571 413.479 287.781C422.184 287.747 430.895 287.875 439.601 287.726C443.564 287.76 445.797 282.634 443.598 279.521C442.069 276.999 438.809 277.168 436.26 277.039C430.199 276.66 423.726 276.727 418.288 273.655C414.751 271.689 412.627 267.817 412.194 263.864C411.382 258.71 412.532 252.953 416.394 249.243Z" fill="white"/>
<path d="M464.45 250.647C467.975 246.518 473.555 244.633 478.864 244.599C487.292 244.592 495.726 244.599 504.154 244.599C504.161 248.891 504.154 253.184 504.161 257.476C495.74 257.51 487.319 257.449 478.905 257.503C477.484 257.625 475.611 257.584 474.813 259.002C473.852 260.643 473.419 262.996 474.664 264.61C476.619 266.108 479.168 266.665 481.61 266.563C487.041 266.651 492.804 265.966 497.87 268.4C502.03 270.394 505.514 274.07 506.677 278.613C508.118 284.201 506.433 290.622 502.003 294.426C497.891 297.966 492.284 299.078 487.001 299.139C478.871 299.153 470.734 299.139 462.604 299.146C462.604 295.356 462.597 291.572 462.611 287.788C470.95 287.774 479.297 287.802 487.65 287.774C489.666 287.883 491.898 287.123 492.838 285.19C494.59 282.363 493.041 277.962 489.612 277.413C483.085 276.606 476.274 277.189 469.99 274.89C466.324 273.629 463.179 270.74 462.022 266.983C460.345 261.585 460.69 255.116 464.45 250.647Z" fill="white"/>
<path d="M305.427 245.365C316.58 245.378 327.741 245.317 338.894 245.399C343.893 245.406 349.385 246.43 352.76 250.485C359.104 257.727 355.946 270.543 347.058 274.164C349.256 275.1 351.583 276.043 353.233 277.847C355.371 280.566 355.966 284.133 356.054 287.51C356.108 291.382 356.054 295.261 356.074 299.14C351.786 299.146 347.505 299.14 343.23 299.146C343.094 294.556 343.581 289.904 342.688 285.367C342.195 282.499 339.983 279.691 336.878 279.624C330.69 279.223 324.48 279.535 318.285 279.44C318.271 286.004 318.285 292.575 318.271 299.146C313.99 299.14 309.708 299.146 305.427 299.14C305.427 281.217 305.427 263.294 305.427 245.365ZM319.042 257.483C319.036 261.524 319.042 265.559 319.036 269.601C324.832 269.587 330.629 269.648 336.425 269.574C338.353 269.485 340.835 269.282 341.694 267.207C342.486 265.302 342.716 263.138 342.574 261.091C342.039 258.507 339.131 257.51 336.797 257.523C330.879 257.422 324.961 257.51 319.042 257.483Z" fill="white"/>
<path d="M363.643 245.364C377.731 245.358 391.821 245.358 405.91 245.364C405.916 249.148 405.91 252.925 405.916 256.716C396.095 256.73 386.274 256.709 376.453 256.723C376.44 259.998 376.447 263.273 376.447 266.556C386.017 266.549 395.581 266.556 405.152 266.548C405.152 270.082 405.152 273.615 405.145 277.147C395.581 277.141 386.017 277.147 376.447 277.147C376.447 280.694 376.447 284.234 376.447 287.78C386.268 287.801 396.089 287.767 405.916 287.801C405.91 291.578 405.91 295.362 405.91 299.146C391.821 299.146 377.731 299.152 363.643 299.139C363.636 281.216 363.636 263.287 363.643 245.364Z" fill="white"/>
<path d="M158.104 246.124C174.466 246.117 190.827 246.138 207.189 246.117C212.654 252.017 218.011 258.018 223.47 263.931C228.908 258.012 234.279 252.037 239.723 246.124C253.373 246.131 267.029 246.117 280.685 246.131C286.536 246.246 293.002 247.487 297.087 252.057C301.051 256.215 300.516 262.589 299.34 267.77C297.973 273.649 292.562 277.67 286.82 278.654C279.008 280.091 271.013 279.182 263.113 279.433C263.106 286.004 263.119 292.575 263.113 299.146C254.84 299.132 246.561 299.166 238.289 299.126C233.196 293.334 228.265 287.394 223.057 281.705C217.572 287.557 211.978 293.314 206.466 299.146C190.348 299.146 174.222 299.146 158.104 299.146C158.104 281.468 158.104 263.796 158.104 246.124ZM230.633 272.611C237.193 279.935 243.741 287.272 250.302 294.596C250.302 280.2 250.302 265.796 250.309 251.4C243.741 258.459 237.207 265.559 230.633 272.611ZM169.434 256.716C169.434 259.999 169.434 263.274 169.44 266.549C178.761 266.556 188.088 266.549 197.416 266.556C197.416 270.082 197.422 273.615 197.416 277.148C188.088 277.148 178.761 277.148 169.434 277.148C169.434 280.945 169.44 284.743 169.434 288.547C179.755 288.547 190.084 288.554 200.412 288.54C205.214 283.251 209.969 277.914 214.785 272.638C210.233 267.322 205.721 261.965 201.122 256.689C190.557 256.757 179.999 256.703 169.434 256.716ZM263.113 256.716C263.113 261.266 263.106 265.817 263.119 270.367C268.767 270.34 274.422 270.407 280.076 270.34C282.89 270.374 286.049 269.011 286.928 266.115C288.423 261.938 285.034 257.13 280.685 256.832C274.834 256.567 268.97 256.791 263.113 256.716Z" fill="white"/>
</g>
<defs>
<clipPath id="clip0_269_10">
<rect width="557" height="385" fill="white" transform="translate(0 31.5)"/>
</clipPath>
</defs>
</svg>
