<svg width="156" height="121" viewBox="0 0 156 121" fill="none" xmlns="http://www.w3.org/2000/svg">
<path d="M75.849 11.7812C76.4427 11.2656 77.0469 10.7656 77.6667 10.2812C78.2813 10.7656 78.8906 11.2656 79.4844 11.7812C89.5938 20.5833 96 33.5365 96 48C96 62.4583 89.5938 75.4115 79.4844 84.2135C78.8906 84.7292 78.2813 85.2292 77.6667 85.7188C77.0469 85.2292 76.4427 84.7292 75.849 84.2135C65.7344 75.4115 59.3333 62.4583 59.3333 48C59.3333 33.5365 65.7344 20.5833 75.849 11.7812Z" fill="white"/>
<path d="M80.7604 8.02083C88.3646 2.95313 97.5052 0 107.328 0C133.839 0 155.328 21.4896 155.328 48C155.328 74.5052 133.839 96 107.328 96C97.5052 96 88.3646 93.0417 80.7604 87.974C81.1458 87.6562 81.5417 87.3385 81.9219 87.0156C93.2292 77.1771 99.7135 62.9531 99.7135 48C99.7135 33.0417 93.2292 18.8177 81.9167 8.97917C81.5417 8.65104 81.1458 8.33854 80.7604 8.02083Z" fill="white"/>
<path d="M74.5729 87.974C74.1823 87.6562 73.7865 87.3385 73.4115 87.0156C62.1042 77.1771 55.6198 62.9583 55.6198 48C55.6198 33.0417 62.1042 18.8177 73.4115 8.97917C73.7865 8.65104 74.1823 8.33854 74.5729 8.02083C66.9635 2.95313 57.8281 0 48 0C21.4896 0 0 21.4896 0 48C0 74.5052 21.4896 96 48 96C57.8281 96 66.9635 93.0417 74.5729 87.974Z" fill="white"/>
<path d="M114.348 106.863C114.915 106.863 115.806 106.945 116.373 107.192L115.482 109.986C114.834 109.74 114.267 109.658 113.7 109.658C111.838 109.658 110.866 110.89 110.866 113.11V120.671H107.951V107.192H110.785V108.836C111.595 107.603 112.729 106.863 114.348 106.863ZM103.659 109.822H98.962V115.904C98.962 117.219 99.4479 118.123 100.906 118.123C101.634 118.123 102.606 117.877 103.497 117.384L104.307 119.932C103.416 120.589 101.958 121 100.663 121C97.2614 121 96.0467 119.11 96.0467 115.986V109.822H93.3743V107.11H96.0467V103H98.962V107.11H103.659V109.822ZM66.6507 112.699C66.9746 110.726 68.1083 109.411 70.2138 109.411C72.0764 109.411 73.2911 110.562 73.615 112.699H66.6507ZM76.6113 113.932C76.6113 109.74 74.0199 106.863 70.2948 106.863C66.4078 106.863 63.6544 109.74 63.6544 113.932C63.6544 118.205 66.4887 121 70.4568 121C72.4813 121 74.2629 120.507 75.8825 119.11L74.4248 116.973C73.2911 117.877 71.9144 118.37 70.5378 118.37C68.6752 118.37 66.9746 117.466 66.5697 115.082H76.4494C76.5303 114.671 76.6113 114.342 76.6113 113.932ZM89.3253 110.644C88.5155 110.151 86.8959 109.493 85.1953 109.493C83.5757 109.493 82.6849 110.068 82.6849 111.055C82.6849 111.959 83.6566 112.205 84.9523 112.37L86.329 112.534C89.2443 112.945 90.9449 114.178 90.9449 116.562C90.9449 119.11 88.7584 121 84.8713 121C82.6849 121 80.6603 120.425 79.1217 119.274L80.4984 116.973C81.4702 117.712 82.9278 118.37 84.9523 118.37C86.8959 118.37 87.9486 117.795 87.9486 116.726C87.9486 115.986 87.2198 115.575 85.6002 115.329L84.2235 115.164C81.2272 114.753 79.6076 113.356 79.6076 111.219C79.6076 108.507 81.7941 106.863 85.1143 106.863C87.2198 106.863 89.1633 107.356 90.54 108.26L89.3253 110.644ZM124.957 109.575C124.39 109.575 123.823 109.658 123.337 109.904C122.851 110.151 122.365 110.397 122.041 110.808C121.718 111.219 121.394 111.63 121.151 112.205C120.908 112.699 120.827 113.356 120.827 113.932C120.827 114.589 120.908 115.164 121.151 115.658C121.394 116.151 121.637 116.644 122.041 117.055C122.446 117.466 122.851 117.712 123.337 117.959C123.823 118.205 124.39 118.288 124.957 118.288C125.524 118.288 126.091 118.205 126.576 117.959C127.062 117.712 127.548 117.466 127.872 117.055C128.277 116.644 128.52 116.233 128.763 115.658C129.006 115.164 129.087 114.507 129.087 113.932C129.087 113.274 129.006 112.699 128.763 112.205C128.52 111.712 128.277 111.219 127.872 110.808C127.467 110.397 127.062 110.151 126.576 109.904C126.091 109.74 125.524 109.575 124.957 109.575ZM124.957 106.863C126.01 106.863 126.981 107.027 127.791 107.438C128.682 107.767 129.411 108.26 130.059 108.918C130.706 109.575 131.192 110.315 131.597 111.137C131.921 112.041 132.164 112.945 132.164 113.932C132.164 114.918 132.002 115.904 131.597 116.726C131.273 117.63 130.706 118.37 130.059 118.945C129.411 119.603 128.682 120.096 127.791 120.425C126.9 120.753 125.929 121 124.957 121C123.904 121 122.932 120.836 122.122 120.425C121.232 120.096 120.503 119.603 119.855 118.945C119.207 118.288 118.721 117.548 118.316 116.726C117.992 115.822 117.749 114.918 117.749 113.932C117.749 112.945 117.911 111.959 118.316 111.137C118.64 110.233 119.207 109.493 119.855 108.918C120.503 108.26 121.232 107.767 122.122 107.438C122.932 107.027 123.904 106.863 124.957 106.863ZM49.8067 113.932C49.8067 111.548 51.3453 109.575 53.8557 109.575C56.2852 109.575 57.8238 111.466 57.8238 113.932C57.8238 116.397 56.2042 118.205 53.8557 118.205C51.3453 118.205 49.8067 116.315 49.8067 113.932ZM60.5771 113.932V107.192H57.6618V108.836C56.771 107.603 55.3944 106.863 53.4508 106.863C49.7257 106.863 46.8104 109.822 46.8104 113.932C46.8104 118.041 49.7257 121 53.4508 121C55.3134 121 56.6901 120.26 57.6618 119.027V120.671H60.5771V113.932ZM44.3 120.671V112.205C44.3 109 42.2755 106.863 39.0363 106.863C37.3357 106.863 35.5541 107.356 34.3394 109.247C33.4486 107.767 31.991 106.863 29.9664 106.863C28.5898 106.863 27.1321 107.274 26.0794 108.836V107.192H23.1641V120.671H26.0794V113.192C26.0794 110.89 27.3751 109.575 29.3186 109.575C31.2621 109.575 32.2339 110.808 32.2339 113.11V120.589H35.1492V113.11C35.1492 110.808 36.5259 109.493 38.3884 109.493C40.332 109.493 41.3037 110.726 41.3037 113.027V120.507H44.3V120.671Z" fill="white"/>
</svg>
