<svg width="156" height="121" viewBox="0 0 156 121" fill="none" xmlns="http://www.w3.org/2000/svg">
<path d="M77.6667 10.2812C77.0469 10.7656 76.4427 11.2656 75.849 11.7812C65.7344 20.5833 59.3333 33.5365 59.3333 48C59.3333 62.4583 65.7344 75.4115 75.849 84.2135C76.4427 84.7292 77.0469 85.2292 77.6667 85.7188C78.2813 85.2292 78.8906 84.7292 79.4844 84.2135C89.5938 75.4115 96 62.4583 96 48C96 33.5365 89.5938 20.5833 79.4844 11.7812C78.8906 11.2656 78.2813 10.7656 77.6667 10.2812ZM107.328 0C97.5052 0 88.3646 2.95313 80.7604 8.02083C81.1458 8.33854 81.5417 8.65104 81.9167 8.97917C93.2292 18.8177 99.7135 33.0417 99.7135 48C99.7135 62.9531 93.2292 77.1771 81.9219 87.0156C81.5417 87.3385 81.1458 87.6563 80.7604 87.974C88.3646 93.0417 97.5052 96 107.328 96C133.839 96 155.328 74.5052 155.328 48C155.328 21.4896 133.839 0 107.328 0ZM73.4115 87.0156C73.7865 87.3385 74.1823 87.6563 74.5729 87.974C66.9635 93.0417 57.8281 96 48 96C21.4896 96 0 74.5052 0 48C0 21.4896 21.4896 0 48 0C57.8281 0 66.9635 2.95313 74.5729 8.02083C74.1823 8.33854 73.7865 8.65104 73.4115 8.97917C62.1042 18.8177 55.6198 33.0417 55.6198 48C55.6198 62.9583 62.1042 77.1771 73.4115 87.0156ZM33.5625 113.76C33.5625 111.521 35.0313 109.682 37.4271 109.682C39.724 109.682 41.2708 111.443 41.2708 113.76C41.2708 116.083 39.724 117.844 37.4271 117.844C35.0313 117.844 33.5625 116 33.5625 113.76ZM43.8802 113.76V107.391H41.1094V108.938C40.2292 107.792 38.8958 107.068 37.0833 107.068C33.5104 107.068 30.7083 109.87 30.7083 113.76C30.7083 117.656 33.5104 120.453 37.0833 120.453C38.8958 120.453 40.2292 119.734 41.1094 118.589V120.135H43.8802V113.76ZM137.521 113.76C137.521 111.521 138.99 109.682 141.391 109.682C143.682 109.682 145.229 111.443 145.229 113.76C145.229 116.083 143.682 117.844 141.391 117.844C138.99 117.844 137.521 116 137.521 113.76ZM147.839 113.76V102.271H145.068V108.938C144.188 107.792 142.854 107.068 141.042 107.068C137.469 107.068 134.667 109.87 134.667 113.76C134.667 117.656 137.469 120.453 141.042 120.453C142.854 120.453 144.188 119.734 145.068 118.589V120.135H147.839V113.76ZM78.276 109.552C80.0625 109.552 81.2083 110.672 81.5052 112.641H74.8906C75.1823 110.802 76.3021 109.552 78.276 109.552ZM78.3333 107.068C74.599 107.068 71.9844 109.792 71.9844 113.76C71.9844 117.818 74.7031 120.453 78.5156 120.453C80.4375 120.453 82.1979 119.974 83.7448 118.667L82.3854 116.615C81.3177 117.469 79.9583 117.948 78.6771 117.948C76.8906 117.948 75.2656 117.12 74.8646 114.828H84.3281C84.3542 114.484 84.3854 114.135 84.3854 113.76C84.3542 109.792 81.901 107.068 78.3333 107.068ZM111.792 113.76C111.792 111.521 113.26 109.682 115.656 109.682C117.953 109.682 119.5 111.443 119.5 113.76C119.5 116.083 117.953 117.844 115.656 117.844C113.26 117.844 111.792 116 111.792 113.76ZM122.109 113.76V107.391H119.339V108.938C118.458 107.792 117.125 107.068 115.312 107.068C111.74 107.068 108.938 109.87 108.938 113.76C108.938 117.656 111.74 120.453 115.312 120.453C117.125 120.453 118.458 119.734 119.339 118.589V120.135H122.109V113.76ZM96.1406 113.76C96.1406 117.63 98.8333 120.453 102.943 120.453C104.859 120.453 106.141 120.031 107.526 118.938L106.193 116.698C105.156 117.443 104.063 117.844 102.859 117.844C100.646 117.818 99.0208 116.214 99.0208 113.76C99.0208 111.307 100.646 109.708 102.859 109.682C104.063 109.682 105.156 110.083 106.193 110.828L107.526 108.589C106.141 107.495 104.859 107.068 102.943 107.068C98.8333 107.068 96.1406 109.896 96.1406 113.76ZM131.87 107.068C130.271 107.068 129.229 107.818 128.51 108.938V107.391H125.766V120.135H128.536V112.99C128.536 110.885 129.443 109.708 131.255 109.708C131.818 109.708 132.401 109.792 132.99 110.031L133.844 107.417C133.229 107.177 132.427 107.068 131.87 107.068ZM57.5885 108.401C56.2552 107.521 54.4115 107.068 52.3854 107.068C49.1615 107.068 47.0833 108.615 47.0833 111.151C47.0833 113.229 48.625 114.51 51.4792 114.906L52.7865 115.094C54.3073 115.307 55.026 115.708 55.026 116.427C55.026 117.417 54.0156 117.974 52.1198 117.974C50.2031 117.974 48.8125 117.365 47.8802 116.641L46.5729 118.802C48.0938 119.922 50.0156 120.453 52.0938 120.453C55.7708 120.453 57.9062 118.724 57.9062 116.297C57.9062 114.057 56.2292 112.88 53.4531 112.484L52.1458 112.297C50.9479 112.135 49.9896 111.896 49.9896 111.042C49.9896 110.109 50.8958 109.552 52.4167 109.552C54.0417 109.552 55.6146 110.161 56.3854 110.641L57.5885 108.401ZM93.3438 107.068C91.7448 107.068 90.7031 107.818 89.9844 108.938V107.391H87.2344V120.135H90.0104V112.99C90.0104 110.885 90.9167 109.708 92.7292 109.708C93.2865 109.708 93.875 109.792 94.4635 110.031L95.3125 107.417C94.7031 107.177 93.901 107.068 93.3438 107.068ZM69.6927 107.391H65.1615V103.526H62.3594V107.391H59.7708V109.922H62.3594V115.734C62.3594 118.698 63.5052 120.453 66.7865 120.453C67.9844 120.453 69.3698 120.083 70.25 119.469L69.4531 117.094C68.625 117.573 67.7187 117.818 67 117.818C65.6094 117.818 65.1615 116.964 65.1615 115.682V109.922H69.6927V107.391ZM28.2552 120.135V112.135C28.2552 109.125 26.3385 107.099 23.2448 107.068C21.6198 107.042 19.9375 107.552 18.7656 109.339C17.8854 107.922 16.5 107.068 14.5521 107.068C13.1927 107.068 11.8594 107.469 10.8177 108.964V107.391H8.04688V120.135H10.8438V113.068C10.8438 110.854 12.0729 109.682 13.9635 109.682C15.8073 109.682 16.7396 110.885 16.7396 113.042V120.135H19.5365V113.068C19.5365 110.854 20.8177 109.682 22.6562 109.682C24.5521 109.682 25.4583 110.885 25.4583 113.042V120.135H28.2552Z" fill="white"/>
</svg>
