<svg width="790" height="615" viewBox="0 0 790 615" fill="none" xmlns="http://www.w3.org/2000/svg">
<path d="M574.283 196.413C555.924 189.726 536.517 186.37 516.977 186.504C453.787 186.504 409.159 218.323 408.843 263.998C408.448 297.554 440.556 316.463 464.845 327.675C489.766 339.202 498.099 346.466 498.02 356.77C497.862 372.442 478.115 379.548 459.751 379.548C434.514 379.548 420.73 376.035 399.522 367.231L391.663 363.56L382.698 416.144C398.061 422.539 425.746 428.026 454.34 428.5C521.519 428.5 565.437 396.879 565.95 348.282C566.503 321.477 549.126 301.225 512.554 284.487C490.319 273.63 476.536 266.367 476.536 255.352C476.536 245.601 488.344 235.179 513.028 235.179C529.456 234.782 545.782 237.863 560.934 244.22L566.858 246.865L575.824 196.057L574.283 196.413ZM738.263 190.767H688.895C673.532 190.767 661.96 194.991 655.246 210.23L560.302 425.223H627.482L640.91 389.97L722.9 390.049C724.835 398.3 730.759 425.223 730.759 425.223H790L738.263 190.767ZM317.967 188.794H381.987L341.94 423.368H277.999L317.967 188.715V188.794ZM155.449 318.082L162.084 350.651L224.642 190.767H292.454L191.704 424.908H124.051L68.7592 226.652C67.8637 223.383 65.7606 220.576 62.8746 218.796C42.9459 208.506 21.8302 200.697 0 195.544L0.868868 190.609H103.909C117.89 191.162 129.146 195.544 132.898 210.467L155.409 318.2L155.449 318.082ZM659.275 342.005L684.788 276.394C684.472 277.104 690.041 262.853 693.279 254.05L697.663 274.301L712.473 341.966H659.235L659.275 342.005Z" fill="white"/>
</svg>
